<svg id="visual" viewBox="0 0 2100 300" width="2100" height="300" xmlns="http://www.w3.org/2000/svg" xmlns:xlink="http://www.w3.org/1999/xlink" version="1.1"><rect x="0" y="0" width="2100" height="300" fill="#001220"></rect><path d="M0 140L191 111L382 86L573 68L764 127L955 126L1145 142L1336 89L1527 68L1718 110L1909 73L2100 107L2100 301L1909 301L1718 301L1527 301L1336 301L1145 301L955 301L764 301L573 301L382 301L191 301L0 301Z" fill="#fa7268"></path><path d="M0 109L191 133L382 173L573 138L764 141L955 145L1145 105L1336 110L1527 159L1718 139L1909 172L2100 138L2100 301L1909 301L1718 301L1527 301L1336 301L1145 301L955 301L764 301L573 301L382 301L191 301L0 301Z" fill="#f16367"></path><path d="M0 143L191 191L382 147L573 173L764 135L955 185L1145 190L1336 165L1527 174L1718 151L1909 178L2100 170L2100 301L1909 301L1718 301L1527 301L1336 301L1145 301L955 301L764 301L573 301L382 301L191 301L0 301Z" fill="#e85467"></path><path d="M0 201L191 196L382 180L573 216L764 176L955 197L1145 170L1336 202L1527 215L1718 195L1909 183L2100 174L2100 301L1909 301L1718 301L1527 301L1336 301L1145 301L955 301L764 301L573 301L382 301L191 301L0 301Z" fill="#de4467"></path><path d="M0 224L191 235L382 214L573 205L764 206L955 236L1145 229L1336 209L1527 222L1718 223L1909 210L2100 229L2100 301L1909 301L1718 301L1527 301L1336 301L1145 301L955 301L764 301L573 301L382 301L191 301L0 301Z" fill="#d23467"></path><path d="M0 254L191 265L382 269L573 259L764 263L955 259L1145 260L1336 243L1527 261L1718 264L1909 258L2100 259L2100 301L1909 301L1718 301L1527 301L1336 301L1145 301L955 301L764 301L573 301L382 301L191 301L0 301Z" fill="#c62368"></path></svg>