<svg id="visual" viewBox="0 0 2100 300" width="2100" height="300" xmlns="http://www.w3.org/2000/svg" xmlns:xlink="http://www.w3.org/1999/xlink" version="1.1"><rect x="0" y="0" width="2100" height="300" fill="#001220"></rect><path d="M0 206L70 208C140 210 280 214 420 209.7C560 205.3 700 192.7 840 182.7C980 172.7 1120 165.3 1260 168.5C1400 171.7 1540 185.3 1680 191C1820 196.7 1960 194.3 2030 193.2L2100 192L2100 0L2030 0C1960 0 1820 0 1680 0C1540 0 1400 0 1260 0C1120 0 980 0 840 0C700 0 560 0 420 0C280 0 140 0 70 0L0 0Z" fill="#fa7268"></path><path d="M0 197L70 189C140 181 280 165 420 166.5C560 168 700 187 840 190.8C980 194.7 1120 183.3 1260 178.7C1400 174 1540 176 1680 174.5C1820 173 1960 168 2030 165.5L2100 163L2100 0L2030 0C1960 0 1820 0 1680 0C1540 0 1400 0 1260 0C1120 0 980 0 840 0C700 0 560 0 420 0C280 0 140 0 70 0L0 0Z" fill="#ef5f67"></path><path d="M0 174L70 164C140 154 280 134 420 128C560 122 700 130 840 127.5C980 125 1120 112 1260 116.3C1400 120.7 1540 142.3 1680 144.8C1820 147.3 1960 130.7 2030 122.3L2100 114L2100 0L2030 0C1960 0 1820 0 1680 0C1540 0 1400 0 1260 0C1120 0 980 0 840 0C700 0 560 0 420 0C280 0 140 0 70 0L0 0Z" fill="#e34c67"></path><path d="M0 98L70 91.5C140 85 280 72 420 73.3C560 74.7 700 90.3 840 99C980 107.7 1120 109.3 1260 104.5C1400 99.7 1540 88.3 1680 87.3C1820 86.3 1960 95.7 2030 100.3L2100 105L2100 0L2030 0C1960 0 1820 0 1680 0C1540 0 1400 0 1260 0C1120 0 980 0 840 0C700 0 560 0 420 0C280 0 140 0 70 0L0 0Z" fill="#d53867"></path><path d="M0 40L70 46.7C140 53.3 280 66.7 420 66.7C560 66.7 700 53.3 840 53.5C980 53.7 1120 67.3 1260 69.8C1400 72.3 1540 63.7 1680 55.7C1820 47.7 1960 40.3 2030 36.7L2100 33L2100 0L2030 0C1960 0 1820 0 1680 0C1540 0 1400 0 1260 0C1120 0 980 0 840 0C700 0 560 0 420 0C280 0 140 0 70 0L0 0Z" fill="#c62368"></path></svg>