<svg id="visual" viewBox="0 0 1500 600" width="1500" height="600" xmlns="http://www.w3.org/2000/svg" xmlns:xlink="http://www.w3.org/1999/xlink" version="1.1"><g stroke-width="1" stroke-linejoin="bevel"><path d="M767 328L841 323L827 257Z" fill="#ca5577" stroke="#ca5577"></path><path d="M963 158L829 166L827 257Z" fill="#1f2743" stroke="#1f2743"></path><path d="M827 257L762 156L767 328Z" fill="#fa7268" stroke="#fa7268"></path><path d="M655 316L670 351L767 328Z" fill="#513864" stroke="#513864"></path><path d="M767 328L734 430L841 323Z" fill="#6f3f70" stroke="#6f3f70"></path><path d="M829 166L762 156L827 257Z" fill="#00101c" stroke="#00101c"></path><path d="M762 156L655 316L767 328Z" fill="#ca5577" stroke="#ca5577"></path><path d="M670 351L734 430L767 328Z" fill="#e46171" stroke="#e46171"></path><path d="M901 475L948 396L841 323Z" fill="#6f3f70" stroke="#6f3f70"></path><path d="M841 323L965 370L827 257Z" fill="#ad4c79" stroke="#ad4c79"></path><path d="M948 396L965 370L841 323Z" fill="#8e4577" stroke="#8e4577"></path><path d="M734 430L801 480L841 323Z" fill="#0d1c2f" stroke="#0d1c2f"></path><path d="M801 480L901 475L841 323Z" fill="#363055" stroke="#363055"></path><path d="M948 396L1016 356L965 370Z" fill="#363055" stroke="#363055"></path><path d="M670 351L702 479L734 430Z" fill="#e46171" stroke="#e46171"></path><path d="M734 430L702 479L801 480Z" fill="#8e4577" stroke="#8e4577"></path><path d="M557 507L702 479L670 351Z" fill="#0d1c2f" stroke="#0d1c2f"></path><path d="M965 370L963 158L827 257Z" fill="#e46171" stroke="#e46171"></path><path d="M829 166L802 56L762 156Z" fill="#e46171" stroke="#e46171"></path><path d="M1042 541L1016 356L948 396Z" fill="#ad4c79" stroke="#ad4c79"></path><path d="M965 370L1044 324L963 158Z" fill="#ad4c79" stroke="#ad4c79"></path><path d="M1032 149L963 138L963 158Z" fill="#363055" stroke="#363055"></path><path d="M963 158L963 138L829 166Z" fill="#fa7268" stroke="#fa7268"></path><path d="M568 218L577 332L655 316Z" fill="#6f3f70" stroke="#6f3f70"></path><path d="M655 316L577 332L670 351Z" fill="#0d1c2f" stroke="#0d1c2f"></path><path d="M890 40L802 56L829 166Z" fill="#e46171" stroke="#e46171"></path><path d="M762 156L568 218L655 316Z" fill="#0d1c2f" stroke="#0d1c2f"></path><path d="M1016 356L1044 324L965 370Z" fill="#00101c" stroke="#00101c"></path><path d="M664 80L568 218L762 156Z" fill="#ad4c79" stroke="#ad4c79"></path><path d="M707 39L664 80L762 156Z" fill="#ad4c79" stroke="#ad4c79"></path><path d="M963 138L890 40L829 166Z" fill="#0d1c2f" stroke="#0d1c2f"></path><path d="M802 56L707 39L762 156Z" fill="#0d1c2f" stroke="#0d1c2f"></path><path d="M557 507L663 531L702 479Z" fill="#1f2743" stroke="#1f2743"></path><path d="M698 600L819 600L801 480Z" fill="#00101c" stroke="#00101c"></path><path d="M946 600L968 544L901 475Z" fill="#6f3f70" stroke="#6f3f70"></path><path d="M1044 324L1032 149L963 158Z" fill="#fa7268" stroke="#fa7268"></path><path d="M963 138L979 67L890 40Z" fill="#ad4c79" stroke="#ad4c79"></path><path d="M719 0L707 39L802 56Z" fill="#513864" stroke="#513864"></path><path d="M1032 149L979 67L963 138Z" fill="#513864" stroke="#513864"></path><path d="M478 275L514 365L577 332Z" fill="#fa7268" stroke="#fa7268"></path><path d="M577 332L557 507L670 351Z" fill="#ad4c79" stroke="#ad4c79"></path><path d="M819 600L901 475L801 480Z" fill="#6f3f70" stroke="#6f3f70"></path><path d="M901 475L968 544L948 396Z" fill="#ad4c79" stroke="#ad4c79"></path><path d="M1147 386L1136 340L1044 324Z" fill="#e46171" stroke="#e46171"></path><path d="M960 0L844 0L890 40Z" fill="#1f2743" stroke="#1f2743"></path><path d="M890 40L844 0L802 56Z" fill="#513864" stroke="#513864"></path><path d="M698 600L801 480L702 479Z" fill="#00101c" stroke="#00101c"></path><path d="M844 0L719 0L802 56Z" fill="#1f2743" stroke="#1f2743"></path><path d="M707 39L562 0L664 80Z" fill="#00101c" stroke="#00101c"></path><path d="M445 147L478 275L568 218Z" fill="#0d1c2f" stroke="#0d1c2f"></path><path d="M663 531L698 600L702 479Z" fill="#8e4577" stroke="#8e4577"></path><path d="M632 600L698 600L663 531Z" fill="#363055" stroke="#363055"></path><path d="M514 365L557 507L577 332Z" fill="#8e4577" stroke="#8e4577"></path><path d="M501 32L568 218L664 80Z" fill="#8e4577" stroke="#8e4577"></path><path d="M568 218L478 275L577 332Z" fill="#00101c" stroke="#00101c"></path><path d="M436 600L506 600L557 507Z" fill="#fa7268" stroke="#fa7268"></path><path d="M1136 340L1133 263L1044 324Z" fill="#8e4577" stroke="#8e4577"></path><path d="M1044 324L1133 263L1032 149Z" fill="#00101c" stroke="#00101c"></path><path d="M974 0L960 0L979 67Z" fill="#00101c" stroke="#00101c"></path><path d="M819 600L946 600L901 475Z" fill="#363055" stroke="#363055"></path><path d="M1147 386L1044 324L1016 356Z" fill="#513864" stroke="#513864"></path><path d="M979 67L960 0L890 40Z" fill="#363055" stroke="#363055"></path><path d="M974 0L979 67L1061 0Z" fill="#513864" stroke="#513864"></path><path d="M1042 541L948 396L968 544Z" fill="#6f3f70" stroke="#6f3f70"></path><path d="M1004 600L1042 541L968 544Z" fill="#fa7268" stroke="#fa7268"></path><path d="M1061 0L979 67L1032 149Z" fill="#ca5577" stroke="#ca5577"></path><path d="M557 507L632 600L663 531Z" fill="#0d1c2f" stroke="#0d1c2f"></path><path d="M1042 541L1147 386L1016 356Z" fill="#513864" stroke="#513864"></path><path d="M1136 340L1170 317L1133 263Z" fill="#fa7268" stroke="#fa7268"></path><path d="M946 600L1004 600L968 544Z" fill="#00101c" stroke="#00101c"></path><path d="M1042 541L1224 554L1147 386Z" fill="#e46171" stroke="#e46171"></path><path d="M1147 386L1170 317L1136 340Z" fill="#363055" stroke="#363055"></path><path d="M1167 0L1061 0L1032 149Z" fill="#fa7268" stroke="#fa7268"></path><path d="M719 0L562 0L707 39Z" fill="#fa7268" stroke="#fa7268"></path><path d="M501 32L445 147L568 218Z" fill="#513864" stroke="#513864"></path><path d="M1167 0L1032 149L1235 67Z" fill="#0d1c2f" stroke="#0d1c2f"></path><path d="M445 147L409 263L478 275Z" fill="#513864" stroke="#513864"></path><path d="M478 275L359 372L514 365Z" fill="#513864" stroke="#513864"></path><path d="M445 147L405 265L409 263Z" fill="#e46171" stroke="#e46171"></path><path d="M409 263L405 265L478 275Z" fill="#00101c" stroke="#00101c"></path><path d="M562 0L501 32L664 80Z" fill="#363055" stroke="#363055"></path><path d="M562 0L500 0L501 32Z" fill="#fa7268" stroke="#fa7268"></path><path d="M501 32L426 43L445 147Z" fill="#e46171" stroke="#e46171"></path><path d="M369 514L557 507L514 365Z" fill="#fa7268" stroke="#fa7268"></path><path d="M557 507L506 600L632 600Z" fill="#513864" stroke="#513864"></path><path d="M500 0L467 0L501 32Z" fill="#0d1c2f" stroke="#0d1c2f"></path><path d="M257 207L260 257L405 265Z" fill="#8e4577" stroke="#8e4577"></path><path d="M333 371L359 372L405 265Z" fill="#1f2743" stroke="#1f2743"></path><path d="M405 265L359 372L478 275Z" fill="#513864" stroke="#513864"></path><path d="M1004 600L1134 600L1042 541Z" fill="#e46171" stroke="#e46171"></path><path d="M1147 386L1246 444L1170 317Z" fill="#0d1c2f" stroke="#0d1c2f"></path><path d="M467 0L426 43L501 32Z" fill="#513864" stroke="#513864"></path><path d="M1224 554L1246 444L1147 386Z" fill="#1f2743" stroke="#1f2743"></path><path d="M1235 67L1032 149L1133 263Z" fill="#ca5577" stroke="#ca5577"></path><path d="M1267 215L1133 263L1170 317Z" fill="#ca5577" stroke="#ca5577"></path><path d="M1312 329L1267 215L1170 317Z" fill="#ad4c79" stroke="#ad4c79"></path><path d="M260 257L333 371L405 265Z" fill="#e46171" stroke="#e46171"></path><path d="M369 514L436 600L557 507Z" fill="#00101c" stroke="#00101c"></path><path d="M369 514L514 365L359 372Z" fill="#6f3f70" stroke="#6f3f70"></path><path d="M333 371L369 514L359 372Z" fill="#fa7268" stroke="#fa7268"></path><path d="M1134 600L1224 554L1042 541Z" fill="#ad4c79" stroke="#ad4c79"></path><path d="M1267 215L1235 67L1133 263Z" fill="#00101c" stroke="#00101c"></path><path d="M1180 600L1224 554L1134 600Z" fill="#6f3f70" stroke="#6f3f70"></path><path d="M1267 215L1295 184L1235 67Z" fill="#ad4c79" stroke="#ad4c79"></path><path d="M1346 272L1295 184L1267 215Z" fill="#00101c" stroke="#00101c"></path><path d="M1321 440L1312 329L1246 444Z" fill="#ad4c79" stroke="#ad4c79"></path><path d="M1246 444L1312 329L1170 317Z" fill="#00101c" stroke="#00101c"></path><path d="M1224 554L1321 440L1246 444Z" fill="#ca5577" stroke="#ca5577"></path><path d="M333 371L313 522L369 514Z" fill="#363055" stroke="#363055"></path><path d="M369 514L322 600L436 600Z" fill="#363055" stroke="#363055"></path><path d="M257 207L405 265L445 147Z" fill="#ca5577" stroke="#ca5577"></path><path d="M333 371L200 454L313 522Z" fill="#6f3f70" stroke="#6f3f70"></path><path d="M1439 252L1346 272L1461 391Z" fill="#e46171" stroke="#e46171"></path><path d="M1312 329L1346 272L1267 215Z" fill="#00101c" stroke="#00101c"></path><path d="M1318 33L1265 0L1235 67Z" fill="#e46171" stroke="#e46171"></path><path d="M1318 33L1235 67L1295 184Z" fill="#00101c" stroke="#00101c"></path><path d="M1235 67L1265 0L1167 0Z" fill="#00101c" stroke="#00101c"></path><path d="M297 32L257 207L445 147Z" fill="#ad4c79" stroke="#ad4c79"></path><path d="M297 32L445 147L426 43Z" fill="#8e4577" stroke="#8e4577"></path><path d="M313 522L322 600L369 514Z" fill="#00101c" stroke="#00101c"></path><path d="M231 600L322 600L313 522Z" fill="#00101c" stroke="#00101c"></path><path d="M273 0L297 32L426 43Z" fill="#00101c" stroke="#00101c"></path><path d="M1449 87L1318 33L1295 184Z" fill="#363055" stroke="#363055"></path><path d="M188 364L205 346L54 252Z" fill="#e46171" stroke="#e46171"></path><path d="M147 190L205 346L260 257Z" fill="#e46171" stroke="#e46171"></path><path d="M260 257L205 346L333 371Z" fill="#0d1c2f" stroke="#0d1c2f"></path><path d="M1224 554L1363 562L1321 440Z" fill="#8e4577" stroke="#8e4577"></path><path d="M1461 391L1346 272L1312 329Z" fill="#ca5577" stroke="#ca5577"></path><path d="M1180 600L1322 600L1224 554Z" fill="#ad4c79" stroke="#ad4c79"></path><path d="M467 0L273 0L426 43Z" fill="#513864" stroke="#513864"></path><path d="M297 32L173 166L257 207Z" fill="#ca5577" stroke="#ca5577"></path><path d="M147 190L260 257L257 207Z" fill="#ca5577" stroke="#ca5577"></path><path d="M205 346L200 454L333 371Z" fill="#0d1c2f" stroke="#0d1c2f"></path><path d="M1322 600L1363 562L1224 554Z" fill="#513864" stroke="#513864"></path><path d="M188 364L200 454L205 346Z" fill="#6f3f70" stroke="#6f3f70"></path><path d="M1461 391L1312 329L1321 440Z" fill="#fa7268" stroke="#fa7268"></path><path d="M1346 272L1439 252L1295 184Z" fill="#ca5577" stroke="#ca5577"></path><path d="M273 0L173 166L297 32Z" fill="#513864" stroke="#513864"></path><path d="M200 454L231 600L313 522Z" fill="#6f3f70" stroke="#6f3f70"></path><path d="M130 191L147 190L173 166Z" fill="#6f3f70" stroke="#6f3f70"></path><path d="M173 166L147 190L257 207Z" fill="#513864" stroke="#513864"></path><path d="M188 364L131 490L200 454Z" fill="#ad4c79" stroke="#ad4c79"></path><path d="M1363 562L1461 391L1321 440Z" fill="#0d1c2f" stroke="#0d1c2f"></path><path d="M1322 600L1400 600L1363 562Z" fill="#ca5577" stroke="#ca5577"></path><path d="M1500 542L1500 413L1461 391Z" fill="#1f2743" stroke="#1f2743"></path><path d="M1439 252L1449 87L1295 184Z" fill="#00101c" stroke="#00101c"></path><path d="M1318 33L1429 0L1265 0Z" fill="#00101c" stroke="#00101c"></path><path d="M1500 163L1449 87L1439 252Z" fill="#fa7268" stroke="#fa7268"></path><path d="M46 114L130 191L173 166Z" fill="#e46171" stroke="#e46171"></path><path d="M147 190L130 191L205 346Z" fill="#fa7268" stroke="#fa7268"></path><path d="M200 454L131 490L231 600Z" fill="#6f3f70" stroke="#6f3f70"></path><path d="M1449 87L1429 0L1318 33Z" fill="#00101c" stroke="#00101c"></path><path d="M63 449L131 490L188 364Z" fill="#363055" stroke="#363055"></path><path d="M1500 413L1500 332L1461 391Z" fill="#ad4c79" stroke="#ad4c79"></path><path d="M1461 391L1500 332L1439 252Z" fill="#ca5577" stroke="#ca5577"></path><path d="M1500 542L1461 391L1363 562Z" fill="#513864" stroke="#513864"></path><path d="M1500 332L1500 163L1439 252Z" fill="#363055" stroke="#363055"></path><path d="M1449 87L1500 0L1429 0Z" fill="#00101c" stroke="#00101c"></path><path d="M1500 163L1500 151L1449 87Z" fill="#8e4577" stroke="#8e4577"></path><path d="M273 0L133 0L173 166Z" fill="#1f2743" stroke="#1f2743"></path><path d="M1400 600L1500 542L1363 562Z" fill="#1f2743" stroke="#1f2743"></path><path d="M0 165L54 252L130 191Z" fill="#8e4577" stroke="#8e4577"></path><path d="M130 191L54 252L205 346Z" fill="#1f2743" stroke="#1f2743"></path><path d="M0 303L63 449L188 364Z" fill="#8e4577" stroke="#8e4577"></path><path d="M131 490L64 600L231 600Z" fill="#fa7268" stroke="#fa7268"></path><path d="M1500 151L1500 0L1449 87Z" fill="#6f3f70" stroke="#6f3f70"></path><path d="M1400 600L1500 600L1500 542Z" fill="#ca5577" stroke="#ca5577"></path><path d="M133 0L46 114L173 166Z" fill="#ca5577" stroke="#ca5577"></path><path d="M0 451L64 600L63 449Z" fill="#6f3f70" stroke="#6f3f70"></path><path d="M0 303L188 364L54 252Z" fill="#513864" stroke="#513864"></path><path d="M63 449L64 600L131 490Z" fill="#0d1c2f" stroke="#0d1c2f"></path><path d="M0 165L0 303L54 252Z" fill="#363055" stroke="#363055"></path><path d="M133 0L50 0L46 114Z" fill="#0d1c2f" stroke="#0d1c2f"></path><path d="M46 114L0 165L130 191Z" fill="#6f3f70" stroke="#6f3f70"></path><path d="M0 77L0 165L46 114Z" fill="#ad4c79" stroke="#ad4c79"></path><path d="M0 303L0 442L63 449Z" fill="#8e4577" stroke="#8e4577"></path><path d="M0 442L0 451L63 449Z" fill="#8e4577" stroke="#8e4577"></path><path d="M50 0L0 77L46 114Z" fill="#e46171" stroke="#e46171"></path><path d="M50 0L0 0L0 77Z" fill="#e46171" stroke="#e46171"></path><path d="M0 451L0 600L64 600Z" fill="#8e4577" stroke="#8e4577"></path></g></svg>